<?xml version="1.0" encoding="iso-8859-1"?>
<!-- Uploaded to: SVG Repo, www.svgrepo.com, Generator: SVG Repo Mixer Tools -->
<svg height="800px" width="800px" version="1.1" id="Layer_1" xmlns="http://www.w3.org/2000/svg" xmlns:xlink="http://www.w3.org/1999/xlink" 
	 viewBox="0 0 511.467 511.467" xml:space="preserve">
<g transform="translate(1 1)">
	<g>
		<path style="fill:#FFE100;" d="M266.68,452.707c-29.867,0-58.027-9.387-81.92-27.307c-74.24-64-91.307-129.707-92.16-173.227
			c-0.853-52.907,19.627-103.253,57.173-138.24c3.413-3.413,8.533-3.413,11.947,0c3.413,3.413,3.413,8.533,0,11.947
			c-34.133,31.573-52.907,77.653-51.2,125.44c0.853,40.96,16.213,101.547,85.333,160.427c21.333,15.36,44.373,23.893,70.827,23.893
			s50.347-7.68,71.68-23.893c68.267-58.88,83.627-119.467,85.333-160.427c0.853-47.787-17.92-93.867-51.2-125.44
			c-3.413-3.413-3.413-8.533,0-11.947c3.413-3.413,8.533-3.413,11.947,0c37.547,34.987,58.027,85.333,57.173,138.24
			c-0.853,44.373-17.92,110.08-91.307,173.227C323.853,443.32,296.547,452.707,266.68,452.707z"/>
		<path style="fill:#FFE100;" d="M118.2,150.627L118.2,150.627L118.2,150.627c-28.16,0-51.2-23.04-51.2-51.2V65.293
			c28.16,0,51.2,23.04,51.2,51.2V150.627z"/>
		<path style="fill:#FFE100;" d="M85.773,229.133L85.773,229.133c-27.307,6.827-54.613-9.387-61.44-37.547l-8.533-33.28
			c27.307-6.827,55.467,10.24,62.293,37.547L85.773,229.133z"/>
		<path style="fill:#FFE100;" d="M96.867,307.64L96.867,307.64C72.973,323,41.4,317.027,26.04,293.133l-18.773-28.16l0,0
			c23.893-15.36,55.467-9.387,70.827,14.507L96.867,307.64z"/>
		<path style="fill:#FFE100;" d="M142.093,382.733L142.093,382.733c-14.507,24.747-45.227,33.28-69.973,18.773L42.253,384.44l0,0
			c14.507-24.747,45.227-33.28,69.973-18.773L142.093,382.733z"/>
		<path style="fill:#FFE100;" d="M148.067,389.56L148.067,389.56c-11.947-25.6,0-56.32,25.6-67.413l30.72-14.507l0,0
			c11.947,25.6,0,56.32-25.6,67.413L148.067,389.56z"/>
		<path style="fill:#FFE100;" d="M101.133,188.173c14.507-24.747,40.96-40.107,67.413-30.72l32.427,11.093l0,0
			c-9.387,26.453-38.4,40.96-64.853,31.573L101.133,188.173z"/>
		<path style="fill:#FFE100;" d="M98.573,302.52L98.573,302.52c27.307,6.827,55.467-9.387,62.293-36.693l8.533-33.28
			c-27.307-6.827-55.467,9.387-62.293,36.693L98.573,302.52z"/>
		<path style="fill:#FFE100;" d="M391.267,150.627L391.267,150.627L391.267,150.627c28.16,0,51.2-23.04,51.2-51.2V65.293
			c-28.16,0-51.2,23.04-51.2,51.2V150.627z"/>
		<path style="fill:#FFE100;" d="M423.693,229.133L423.693,229.133c27.307,6.827,55.467-10.24,62.293-37.547l8.533-33.28
			c-27.307-6.827-55.467,10.24-62.293,37.547L423.693,229.133z"/>
		<path style="fill:#FFE100;" d="M412.6,307.64L412.6,307.64c23.893,15.36,55.467,9.387,70.827-14.507l18.773-28.16l0,0
			c-23.893-15.36-55.467-9.387-70.827,14.507L412.6,307.64z"/>
		<path style="fill:#FFE100;" d="M367.373,382.733L367.373,382.733c14.507,24.747,45.227,33.28,69.973,18.773l29.867-17.067l0,0
			c-14.507-24.747-45.227-33.28-69.973-18.773L367.373,382.733z"/>
		<path style="fill:#FFE100;" d="M361.4,389.56L361.4,389.56c11.947-25.6,0-56.32-25.6-67.413l-31.573-14.507l0,0
			c-11.947,25.6,0,56.32,25.6,67.413L361.4,389.56z"/>
		<path style="fill:#FFE100;" d="M408.333,188.173c-14.507-24.747-40.96-40.107-67.413-30.72l-32.427,11.093l0,0
			c9.387,26.453,38.4,40.96,64.853,31.573L408.333,188.173z"/>
		<path style="fill:#FFE100;" d="M410.893,302.52L410.893,302.52c-27.307,6.827-55.467-9.387-62.293-36.693l-8.533-33.28
			c27.307-6.827,55.467,9.387,62.293,36.693L410.893,302.52z"/>
	</g>
	<path d="M118.2,159.16L118.2,159.16c-33.28,0-59.733-26.453-59.733-59.733V65.293c0-5.12,3.413-8.533,8.533-8.533
		c33.28,0,59.733,26.453,59.733,59.733v34.133c0,2.56-0.853,4.267-2.56,5.973S120.76,159.16,118.2,159.16z M75.533,74.68v24.747
		c0,20.48,14.507,37.547,34.133,41.813v-24.747C109.667,96.013,95.16,78.947,75.533,74.68z"/>
	<path d="M73.827,239.373c-26.453,0-51.2-17.92-58.027-45.227l-8.533-33.28c0-2.56,0-4.267,0.853-6.827
		c0.853-1.707,3.413-3.413,5.12-4.267c31.573-7.68,64,11.947,72.533,43.52l8.533,33.28c0.853,4.267-1.707,9.387-5.973,10.24
		C83.213,238.52,78.093,239.373,73.827,239.373z M26.04,165.987l5.973,23.893c5.12,19.627,23.893,33.28,43.52,32.427l-5.973-23.893
		C64.44,177.933,45.667,165.133,26.04,165.987z"/>
	<path d="M68.707,324.707c-4.267,0-7.68,0-11.947-0.853c-15.36-3.413-29.013-11.947-37.547-25.6L0.44,270.093
		c-2.56-4.267-1.707-9.387,2.56-11.947c13.653-8.533,29.013-11.947,45.227-8.533c15.36,3.413,29.013,11.947,37.547,25.6
		l18.773,28.16c0.853,1.707,1.707,4.267,0.853,6.827s-1.707,4.267-3.413,5.12C91.747,321.293,80.653,324.707,68.707,324.707z
		 M19.213,268.387l13.653,20.48c5.973,9.387,16.213,16.213,27.307,17.92c8.533,1.707,17.067,0.853,24.747-2.56l-13.653-20.48
		c-5.973-9.387-16.213-16.213-27.307-17.92C35.427,264.12,26.893,264.973,19.213,268.387z"/>
	<path d="M97.72,416.867c-10.24,0-20.48-2.56-29.867-7.68L37.987,392.12c-1.707-0.853-3.413-3.413-4.267-5.12
		c-0.853-2.56,0-4.267,0.853-6.827c16.213-28.16,52.907-38.4,81.92-22.187l29.867,17.067c4.267,2.56,5.12,7.68,3.413,11.947
		c-7.68,13.653-20.48,23.893-36.693,28.16C107.96,416.013,102.84,416.867,97.72,416.867z M55.053,381.88l21.333,11.947
		c10.24,5.973,21.333,6.827,32.427,4.267c8.533-2.56,15.36-6.827,20.48-12.8l-21.333-12.8
		C90.893,363.107,68.707,366.52,55.053,381.88z"/>
	<path d="M148.067,398.093c-0.853,0-1.707,0-3.413-0.853c-1.707-0.853-3.413-2.56-5.12-4.267c-6.827-14.507-6.827-30.72-1.707-46.08
		c5.973-15.36,17.067-26.453,31.573-33.28l30.72-14.507c4.267-1.707,9.387,0,11.093,4.267c6.827,14.507,6.827,30.72,1.707,46.08
		c-5.973,15.36-17.067,26.453-31.573,33.28l-29.013,14.507C150.627,398.093,149.773,398.093,148.067,398.093z M200.12,319.587
		l-22.187,10.24c-10.24,5.12-17.92,12.8-22.187,23.893c-3.413,7.68-3.413,16.213-1.707,24.747l22.187-10.24
		c10.24-5.12,17.92-12.8,22.187-23.893C200.973,335.8,201.827,327.267,200.12,319.587z"/>
	<path d="M152.333,211.213c-6.827,0-12.8-0.853-19.627-3.413L97.72,195.853c-2.56-0.853-4.267-2.56-5.12-5.12
		c0-2.56,0-5.12,0.853-6.827c17.92-30.72,48.64-44.373,77.653-34.987l32.427,11.093c4.267,1.707,6.827,5.973,5.12,11.093
		c-5.12,15.36-16.213,27.307-29.867,34.133C170.253,208.653,161.72,211.213,152.333,211.213z M114.787,183.053l23.893,8.533
		c11.093,3.413,22.187,2.56,32.427-1.707c7.68-3.413,13.653-9.387,17.92-17.067l-23.04-7.68
		C145.507,158.307,126.733,168.547,114.787,183.053z"/>
	<path d="M111.373,312.76c-5.12,0-10.24-0.853-15.36-1.707c-2.56-0.853-4.267-1.707-5.12-4.267c-0.853-2.56-1.707-4.267-0.853-6.827
		l8.533-33.28c4.267-15.36,13.653-28.16,27.307-36.693c13.653-7.68,29.867-10.24,45.227-5.973c2.56,0.853,4.267,1.707,5.12,4.267
		c0.853,1.707,1.707,4.267,0.853,6.827l-8.533,33.28c-4.267,15.36-13.653,28.16-27.307,36.693
		C131.853,309.347,121.613,312.76,111.373,312.76z M108.813,295.693c8.533,0.853,16.213-1.707,23.893-5.973
		c10.24-5.973,17.067-15.36,19.627-26.453l5.973-23.893c-8.533-0.853-16.213,1.707-23.893,5.973
		c-10.24,5.973-17.067,15.36-19.627,26.453L108.813,295.693z"/>
	<path d="M391.267,159.16c-2.56,0-4.267-0.853-5.973-2.56c-1.707-1.707-2.56-3.413-2.56-5.973v-34.133
		c0-33.28,26.453-59.733,59.733-59.733c5.12,0,8.533,3.413,8.533,8.533v34.133C451,132.707,424.547,159.16,391.267,159.16
		L391.267,159.16z M433.933,74.68c-19.627,4.267-34.133,21.333-34.133,41.813v24.747c19.627-4.267,34.133-21.333,34.133-41.813
		V74.68z"/>
	<path d="M435.64,239.373c-5.12,0-9.387-0.853-14.507-1.707c-4.267-0.853-7.68-5.973-5.973-10.24l8.533-33.28
		c7.68-31.573,40.107-51.2,72.533-43.52c2.56,0.853,4.267,1.707,5.12,4.267c0.853,1.707,1.707,4.267,0.853,6.827L493.667,195
		c-3.413,15.36-13.653,28.16-27.307,36.693C456.973,236.813,446.733,239.373,435.64,239.373z M433.933,222.307
		c8.533,0,16.213-1.707,23.893-5.973c9.387-5.973,16.213-15.36,19.627-26.453l5.973-23.893c-19.627-0.853-38.4,12.8-43.52,32.427
		L433.933,222.307z"/>
	<path d="M440.76,324.707c-11.093,0-23.04-3.413-33.28-10.24c-1.707-0.853-3.413-3.413-3.413-5.12c-0.853-2.56,0-4.267,0.853-6.827
		l18.773-28.16c8.533-13.653,22.187-22.187,37.547-25.6s31.573,0,45.227,8.533c4.267,2.56,5.12,7.68,2.56,11.947l-18.773,28.16
		C479.16,315.32,459.533,324.707,440.76,324.707z M424.547,305.08c18.773,7.68,40.107,0.853,51.2-16.213l13.653-20.48
		c-7.68-3.413-16.213-4.267-24.747-2.56c-11.093,2.56-20.48,8.533-27.307,17.92L424.547,305.08z"/>
	<path d="M411.747,416.867c-20.48,0-40.96-11.093-52.053-29.867c-0.853-1.707-1.707-4.267-0.853-6.827s1.707-4.267,4.267-5.12
		l29.867-17.067c28.16-16.213,64.853-6.827,81.92,22.187c0.853,1.707,1.707,4.267,0.853,6.827s-1.707,4.267-4.267,5.12
		l-29.867,17.067C432.227,414.307,421.987,416.867,411.747,416.867z M379.32,385.293c12.8,14.507,35.84,18.773,52.907,8.533
		l21.333-11.947c-12.8-14.507-35.84-18.773-52.907-8.533L379.32,385.293z"/>
	<path d="M361.4,398.093c-0.853,0-2.56,0-3.413-0.853l-30.72-14.507c-14.507-6.827-25.6-18.773-31.573-33.28
		c-5.973-15.36-5.12-31.573,1.707-46.08c1.707-4.267,6.827-5.973,11.093-4.267l30.72,14.507c14.507,6.827,25.6,18.773,31.573,33.28
		c5.973,15.36,5.12,31.573-1.707,46.08C367.373,396.387,363.96,398.093,361.4,398.093z M309.347,319.587
		c-1.707,7.68-1.707,16.213,1.707,24.747c4.267,10.24,11.947,18.773,22.187,23.893l22.187,10.24
		c1.707-7.68,1.707-16.213-1.707-24.747c-4.267-11.093-11.947-18.773-22.187-23.893L309.347,319.587z"/>
	<path d="M357.133,211.213c-9.387,0-17.92-1.707-26.453-5.973c-14.507-6.827-24.747-19.627-29.867-34.133
		c-1.707-4.267,0.853-9.387,5.12-11.093l32.427-11.093c29.013-9.387,59.733,4.267,77.653,34.987c1.707,2.56,1.707,5.12,0.853,7.68
		s-2.56,4.267-5.12,5.12l-34.987,11.947C369.933,209.507,363.96,211.213,357.133,211.213z M320.44,172.813
		c4.267,6.827,10.24,12.8,17.92,17.067c10.24,5.12,22.187,5.973,32.427,1.707l23.893-8.533c-11.947-15.36-30.72-25.6-51.2-18.773
		L320.44,172.813z"/>
	<path d="M398.093,312.76c-26.453,0-51.2-17.92-58.027-44.373l-8.533-33.28c-0.853-2.56,0-4.267,0.853-6.827
		c0.853-1.707,3.413-3.413,5.12-4.267c15.36-4.267,31.573-1.707,45.227,5.973c13.653,7.68,23.893,21.333,27.307,36.693l8.533,33.28
		c0.853,2.56,0,4.267-0.853,6.827c-0.853,1.707-3.413,3.413-5.12,4.267C408.333,311.907,403.213,312.76,398.093,312.76z
		 M350.307,239.373l5.973,23.893c2.56,11.093,10.24,20.48,19.627,26.453c7.68,4.267,15.36,5.973,23.893,5.973l-5.973-23.893
		c-2.56-11.093-10.24-20.48-19.627-26.453C367.373,241.08,358.84,239.373,350.307,239.373z"/>
	<path d="M254.733,452.707c-29.867,0-58.027-9.387-81.92-27.307c-74.24-64-90.453-129.707-92.16-173.227
		c-0.853-52.907,19.627-103.253,57.173-138.24c3.413-3.413,8.533-3.413,11.947,0c3.413,3.413,3.413,8.533,0,11.947
		c-34.133,31.573-52.907,77.653-51.2,125.44c0.853,40.96,16.213,101.547,85.333,160.427c21.333,15.36,44.373,23.893,70.827,23.893
		s50.347-7.68,71.68-23.893c68.267-58.88,83.627-119.467,84.48-160.427c0.853-47.787-17.92-93.867-51.2-125.44
		c-3.413-3.413-3.413-8.533,0-11.947c3.413-3.413,8.533-3.413,11.947,0c37.547,34.987,58.027,85.333,57.173,138.24
		c-0.853,44.373-17.92,110.08-91.307,173.227C312.76,443.32,284.6,452.707,254.733,452.707z"/>
</g>
</svg>