<?xml version="1.0" encoding="utf-8"?><!-- Uploaded to: SVG Repo, www.svgrepo.com, Generator: SVG Repo Mixer Tools -->
<svg fill="#000000" width="800px" height="800px" viewBox="0 0 24 24" id="sign-in-2" data-name="Flat Color" xmlns="http://www.w3.org/2000/svg" class="icon flat-color"><path id="secondary" d="M21,11H9.41l1.3-1.29A1,1,0,0,0,9.29,8.29l-3,3a1,1,0,0,0,0,1.42l3,3a1,1,0,0,0,1.42,0,1,1,0,0,0,0-1.42L9.41,13H21a1,1,0,0,0,0-2Z" style="fill: rgb(44, 169, 188);"></path><path id="primary" d="M13,21H4a2,2,0,0,1-2-2V5A2,2,0,0,1,4,3h9a2,2,0,0,1,2,2V8a1,1,0,0,1-2,0V5H4V19h9V16a1,1,0,0,1,2,0v3A2,2,0,0,1,13,21Z" style="fill: rgb(0, 0, 0);"></path></svg>